<?xml version="1.0" encoding="utf-8"?>
<svg viewBox="0 0 576 512" xmlns="http://www.w3.org/2000/svg" xmlns:bx="https://boxy-svg.com">
  <path d="M 160.978 451.979 C 169.304 451.979 177.167 448.374 182.81 442.113 L 264.215 351.042 C 275.223 338.709 274.483 319.451 262.365 308.162 C 250.247 296.873 231.561 297.632 220.552 310.059 L 190.58 343.547 L 190.58 57.336 C 190.58 40.545 177.352 26.979 160.978 26.979 C 144.605 26.979 131.377 40.545 131.377 57.336 L 131.377 343.547 L 101.405 310.059 C 90.396 297.727 71.618 296.873 59.592 308.162 C 47.566 319.451 46.734 338.709 57.742 351.042 L 139.147 442.113 C 144.79 448.374 152.653 451.979 160.978 451.979 Z M 338.59 300.193 C 338.59 316.985 351.818 330.55 368.192 330.55 L 382.993 330.55 L 382.993 391.265 L 368.192 391.265 C 351.818 391.265 338.59 404.831 338.59 421.622 C 338.59 438.413 351.818 451.979 368.192 451.979 L 412.595 451.979 L 456.998 451.979 C 473.371 451.979 486.599 438.413 486.599 421.622 C 486.599 404.831 473.371 391.265 456.998 391.265 L 442.197 391.265 L 442.197 300.193 C 442.197 283.402 428.968 269.836 412.595 269.836 L 368.192 269.836 C 351.818 269.836 338.59 283.402 338.59 300.193 Z M 425.268 137.877 C 421.383 139.775 417.127 140.818 412.595 140.818 C 396.221 140.818 382.993 127.252 382.993 110.461 C 382.993 93.67 396.221 80.104 412.595 80.104 C 428.968 80.104 442.197 93.67 442.197 110.461 C 442.197 122.604 435.259 133.039 425.268 137.877 Z M 387.618 189.959 L 381.328 198.687 C 371.615 212.158 374.39 231.131 387.526 241.187 C 400.661 251.242 419.163 248.302 428.968 234.831 L 474.111 172.409 C 487.062 154.479 494 132.85 494 110.556 C 494 64.451 457.553 27.074 412.595 27.074 C 367.637 27.074 331.189 64.451 331.189 110.556 C 331.189 147.744 354.871 179.239 387.711 190.054 L 387.618 189.959 Z" style="fill: rgb(67, 151, 225);" bx:origin="0.542793 0.5"/>
</svg>