<?xml version="1.0" encoding="utf-8"?>
<svg viewBox="0 0 640 512" xmlns="http://www.w3.org/2000/svg">
  <path d="M 224.15 99.716 C 224.15 62.365 199.262 32 168.65 32 C 138.038 32 113.15 62.365 113.15 99.716 C 113.15 137.063 138.038 167.428 168.65 167.428 C 199.262 167.428 224.15 137.063 224.15 99.716 Z M 68.75 269 C 68.75 287.728 81.15 302.857 96.5 302.857 L 170.731 302.857 C 179.49 261.17 204.205 227.208 236.464 211.232 C 228.052 204.883 218.08 201.284 207.5 201.284 L 124.25 201.284 C 93.638 201.284 68.75 231.652 68.75 269 Z M 469.043 302.857 L 540.5 302.857 C 555.85 302.857 568.25 287.728 568.25 269 C 568.25 231.652 543.362 201.284 512.75 201.284 L 429.5 201.284 C 419.354 201.284 409.815 204.565 401.663 210.384 C 434.703 226.044 460.112 260.431 469.043 302.857 Z M 380.243 237.683 C 374.26 235.99 367.93 235.143 361.513 235.143 L 278.263 235.143 C 270.892 235.143 263.78 236.306 257.017 238.422 C 230.307 246.993 208.8 271.328 199.695 302.857 C 196.66 313.439 194.925 324.866 194.925 336.716 C 194.925 355.442 207.327 370.573 222.675 370.573 L 416.925 370.573 C 432.275 370.573 444.675 355.442 444.675 336.716 C 444.675 324.866 443.028 313.439 439.906 302.857 C 430.54 270.377 407.993 245.511 380.157 237.683 L 380.243 237.683 Z M 529.4 99.716 C 529.4 62.365 504.512 32 473.9 32 C 443.288 32 418.4 62.365 418.4 99.716 C 418.4 137.063 443.288 167.428 473.9 167.428 C 504.512 167.428 529.4 137.063 529.4 99.716 Z M 319.888 201.284 C 358.217 201.284 389.263 163.407 389.263 116.643 C 389.263 69.878 358.217 32 319.888 32 C 281.558 32 250.513 69.878 250.513 116.643 C 250.513 163.407 281.558 201.284 319.888 201.284 Z M 68.75 438.284 C 53.4 438.284 41 453.415 41 472.143 C 41 490.869 53.4 506 68.75 506 L 568.25 506 C 583.6 506 596 490.869 596 472.143 C 596 453.415 583.6 438.284 568.25 438.284 L 68.75 438.284 Z" style="fill: rgb(67, 151, 225);"/>
</svg>