<?xml version="1.0" encoding="utf-8"?>
<svg viewBox="0 0 640 512" xmlns="http://www.w3.org/2000/svg">
  <path d="M 54.205 202.9 C 123.211 136.7 216.815 96 320.015 96 C 423.215 96 516.811 136.7 585.805 202.9 C 598.604 215.1 618.804 214.7 631.005 202 C 643.206 189.3 642.808 169 630.109 156.8 C 549.717 79.5 440.421 32 320.021 32 C 199.621 32 90.317 79.5 9.809 156.7 C -2.892 169 -3.294 189.2 8.905 202 C 21.104 214.8 41.404 215.2 54.105 202.9 L 54.205 202.9 Z M 320 256 C 376.8 256 428.598 277.1 468.195 312 C 481.494 323.7 501.694 322.4 513.395 309.2 C 525.096 296 523.798 275.7 510.599 264 C 459.803 219.2 393.006 192 320.006 192 C 247.006 192 180.203 219.2 129.499 264 C 116.198 275.7 114.996 295.9 126.695 309.2 C 138.394 322.5 158.594 323.7 171.895 312 C 211.398 277.1 263.2 256 320.1 256 L 320 256 Z M 383.985 416 C 383.988 380.7 355.291 352 319.991 352 C 284.691 352 255.988 380.7 255.985 416 C 255.981 451.3 284.679 480 319.979 480 C 355.279 480 383.981 451.3 383.985 416 Z" style="fill: rgb(67, 151, 225);"/>
</svg>